<svg xmlns="http://www.w3.org/2000/svg" version="1.1" xmlns:xlink="http://www.w3.org/1999/xlink" xmlns:svgjs="http://svgjs.dev/svgjs" width="1000" height="1125" viewBox="0 0 1000 1125"><g transform="matrix(1,0,0,1,0,0)"><svg viewBox="0 0 320 360" data-background-color="#c9efc7" preserveAspectRatio="xMidYMid meet" height="1125" width="1000" xmlns="http://www.w3.org/2000/svg" xmlns:xlink="http://www.w3.org/1999/xlink"><g id="tight-bounds" transform="matrix(1,0,0,1,0,0)"><svg viewBox="0 0 320 360" height="360" width="320"><g><svg></svg></g><g><svg viewBox="0 0 320 360" height="360" width="320"><g><path xmlns="http://www.w3.org/2000/svg" d="M219.58 41.008c0.707 0 6.365 2.829 9.547 3.89-1.061 0.354-3.536-0.707-6.365-1.768 0.707 0 2.122 0.354 3.536 1.06-0.707-0.707-6.011-2.475-6.718-3.182M166.895 30.047c1.061-0.354 13.436 1.414 19.094 1.768 0.354-0.354-0.707-0.354-2.122-0.707 1.768-0.354 5.304 0.707 7.779 1.06-7.425 0.354-15.558-1.768-22.629-1.06-2.475 0-0.707-0.707-2.122-1.061M156.641 30.047c6.365 0 11.315 0 2.121 0.707-1.061-0.354-2.475-0.354-2.121-0.707M256.707 59.395c0.707 0 3.536 3.182 4.95 4.243-0.354 0.354-3.182-2.475-4.596-3.536 0.354 0.354 0 0-0.354-0.707M249.635 54.798c-2.829-2.475-3.889-2.475-4.243-3.889 2.475 1.414 4.243 2.829 4.243 3.889M204.022 32.522c0.354-0.354 1.061 0.354 2.829 0.707-2.122-0.354-1.768 0-1.061 0.707-2.475-0.354-3.182-0.707-2.475-1.414 1.414 0.707 1.768 0.354 0.707 0M103.602 36.765c0-0.354 1.414-1.061 2.475-1.414-1.061 0.707-0.707 1.061 1.061 0.353 0 0.354-2.122 1.061-3.536 1.768 0.707-0.354 1.414-1.414 0-0.707M211.094 28.986c-1.061 0.354-4.95-1.768-8.84-2.475-2.122-0.707 8.486 1.768 8.84 2.475M2.475 203.66c2.122 8.84 0.707 8.486 0 0M2.829 150.621c0.354-1.414 0.707-5.304 1.06-4.95-1.061 8.486-2.829 12.376-3.182 18.74 1.061-5.657-0.354 3.182-0.707 5.304 0.354 2.829 0.354-1.768 1.061-1.06 0.707 1.061-1.414 15.912-0.707 7.779-0.707 7.425 0 15.558 1.414 17.679-1.768 11.315 7.072 36.773 8.84 42.077 0.354 0.354 0-1.768 0.707-0.353 0.707 4.597 3.889 7.779 4.95 12.729 1.061 1.414 5.304 9.193 6.011 10.962 1.414 2.829 2.122 2.475 3.536 5.303 4.243 8.133 10.961 15.912 17.326 23.337 20.508 24.044 51.978 43.845 86.984 50.918 35.006 7.425 71.779 2.122 100.419-11.669 1.768-1.061 1.414-1.414 3.536-2.122 9.901-3.182 21.923-13.436 28.641-17.326 3.182-3.536 11.669-9.547 12.73-13.082 6.011-4.95 12.022-13.083 15.204-18.387 1.768-2.829 3.182-2.829 3.889-4.597-0.354 0 5.657-7.425 7.426-11.668-0.707 0-1.768 2.122-1.768 0 12.729-24.398 19.801-57.282 15.911-79.912 0.707 27.934-6.365 59.05-19.801 78.851-6.011 12.729-18.387 26.519-29.701 36.42-1.768 1.768-3.536 3.889-5.658 5.304-6.718 5.657-14.144 10.254-21.922 14.497-18.387 10.254-38.895 19.094-62.94 19.447 41.37-3.536 78.497-24.398 99.006-49.856-15.558 15.204-22.276 21.215-39.602 30.055-1.414 2.475-13.083 7.425-20.862 9.547 4.597-2.122 14.144-5.657 17.326-8.486-25.812 12.376-54.453 19.448-81.326 15.558 10.254 0 24.751 0.354 38.541-2.121 2.122-0.707 3.182-1.414 5.658-1.768 26.873-6.011 52.685-19.094 71.072-37.481-10.608 9.547-26.519 20.862-36.774 24.398 9.547-5.304 26.873-15.558 32.53-23.337-11.315 11.315-32.53 22.63-45.966 27.58-2.122 0.354 1.414-1.414-2.122 0-4.243 1.061-2.475 1.061-3.536 1.768-16.265 4.597-35.006 8.486-50.563 7.072-2.829-0.354-3.889-1.061-6.365-1.061-2.829-0.354-5.304-0.354-8.486-0.354-12.376-1.414-25.812-6.365-35.713-10.607-5.304-2.475-10.608-4.243-15.912-7.426-4.243-2.475-7.779-5.304-11.314-8.132-13.436-9.901-24.751-19.801-35.36-33.945-19.094-26.519-28.994-59.757-27.58-92.641 1.414-32.884 14.497-65.061 35.359-88.752-1.061 1.061 1.414-2.475 3.536-4.596 0 0.707-0.354 1.768 2.122-0.707 2.122-2.475-0.707-0.707 0.353-2.122 21.923-24.044 60.111-43.492 99.36-44.199 1.414-1.061 3.889-2.475 6.718-1.768 0 0.354-1.768 0.354-1.768 0.354 3.889-0.354 7.425-0.354 9.193 0.353 0.354-0.354-1.414-0.707 0-0.707 2.475 0.707 3.182 0 4.597 0.707-1.061 0-2.122 0-2.829 0.354 8.84 0 14.497 2.122 23.337 2.829-4.597-1.061-5.657-1.061-9.193-2.122 3.889 0.707 5.657 1.414 7.425 1.061-0.707 0-0.354-1.061 0.354-0.707 7.072 1.768 7.779 2.475 15.204 4.95 0.707-0.707-3.182-1.061-4.243-2.122 7.072 2.475 13.436 4.243 17.68 7.072-1.414-1.061-5.657-2.475-8.84-3.889-0.354 0.354 1.061 0.707 1.414 1.414-3.536-1.768-8.486-3.536-13.436-4.243 4.243 1.061 7.072 2.475 8.84 3.182-3.889-0.707-8.84-3.182-14.498-4.243 9.193 2.829 26.519 9.193 37.127 14.851-3.889-2.475-8.486-4.243-10.961-5.657 2.122 0.354 4.597 1.768 4.597 1.06 2.475 1.061 5.657 3.536 7.425 3.89-3.182-2.122-9.547-5.304-11.668-6.365 26.519 12.022 50.21 32.177 65.414 57.989 1.414 2.475 3.536 8.133 5.304 8.84-0.354-1.768-1.768-2.829-3.182-5.657 0.707 0 0.707-1.061 0-2.122-1.414-1.768 0 1.414-1.415-0.354-6.365-11.669-14.144-21.923-26.165-33.237 6.718 6.365 1.768 1.768 0.353-0.354 9.193 8.133 19.801 21.923 24.398 28.995-0.707-1.061-1.061-1.768-0.707-1.768 8.486 14.497 13.79 27.58 19.094 46.32 0.354 0.354 0-1.414 0.707-0.353 3.536 14.851 4.597 27.227 4.243 38.541 2.829-19.094-3.536-48.796-14.851-72.133-1.414-2.829-1.414-0.707-2.829-3.889 0-1.061-1.061-3.182-1.768-4.597-14.144-23.337-31.47-39.956-51.978-53.038 1.414 0.707 4.243 2.829 4.244 2.475-38.188-25.105-82.387-28.641-118.807-20.862-2.475 1.061-3.536 2.122-6.365 3.536 5.304-1.768 8.486-2.122 13.437-3.183 1.061-1.061-4.597 0.354-2.122-0.707 0.354 0.354 4.95-0.707 6.011-0.353 0 0.354-1.414 0.707-1.768 1.06 11.669-2.475 23.691-2.829 33.945-2.121-6.011 0.354-16.972-0.707-20.508 1.061 3.536-0.354 8.486-0.707 11.668-0.354-4.243 0-12.022 0.354-15.558 0.707-0.354-0.354 5.657-1.061 1.768-1.06-1.768 0.354-4.597 0.354-5.657 1.414-30.409 2.829-60.111 18.74-80.973 37.481-4.243 3.536-9.193 7.425-12.375 11.314-7.779 8.84-12.729 17.68-18.387 25.459 3.536-7.425 11.315-18.74 20.508-28.287 9.193-9.547 19.094-17.68 24.398-21.923 0 1.414 8.486-5.304 11.669-7.425-2.122 1.768 1.414-0.707 2.121-0.354 11.315-6.718 20.508-9.193 30.763-13.083-2.475 0.707-4.597 1.414-4.951 1.061 2.475-0.707 3.889-1.414 3.536-1.768-9.901 2.829-25.459 9.547-37.834 16.972 22.276-15.204 50.564-24.398 78.497-24.751 27.934-0.707 55.16 6.365 76.729 17.68 14.497 6.365 28.287 18.033 39.249 29.348 3.182 2.829 0.707-0.707 5.304 4.243-1.414-0.707-2.475-1.414-0.707 0.707 2.829 3.182-0.707-2.475 3.889 3.182-0.354 0-1.768-1.768-1.768-1.061 12.376 10.961 21.923 30.762 27.58 43.846-1.414-5.304-4.95-12.729-7.779-18.033 8.486 15.558 11.315 24.751 14.851 38.541 1.414 1.061-0.707-4.95 0.707-2.121 0.354 2.122 0.707 8.84 2.122 9.9-1.061-6.718-2.829-14.851-4.243-16.265 1.061 0.707-1.768-8.133-3.536-10.254-0.707-5.657-5.657-15.558-9.901-22.984-15.204-29.702-42.431-54.099-72.839-67.536 0-0.707-1.768-1.414-2.476-2.121-30.055-12.729-66.122-16.265-100.773-8.133-35.006 8.486-67.889 28.641-91.227 57.636 1.061-3.536 9.901-10.254 10.255-13.083-10.254 10.961-21.215 25.459-28.641 41.016-7.779 15.558-12.022 31.47-13.79 43.138" fill="#454545" fill-rule="nonzero" stroke="none" stroke-width="1" stroke-linecap="butt" stroke-linejoin="miter" stroke-miterlimit="10" stroke-dasharray="" stroke-dashoffset="0" font-family="none" font-weight="none" font-size="none" text-anchor="none" style="mix-blend-mode: normal" data-fill-palette-color="tertiary"></path></g><g transform="matrix(1,0,0,1,48.000000000000014,159.13583441138422)"><svg viewBox="0 0 223.99999999999997 41.72833117723156" height="41.72833117723156" width="223.99999999999997"><g><svg viewBox="0 0 223.99999999999997 41.72833117723156" height="41.72833117723156" width="223.99999999999997"><g><svg viewBox="0 0 223.99999999999997 41.72833117723156" height="41.72833117723156" width="223.99999999999997"><g><svg viewBox="0 0 223.99999999999997 41.72833117723156" height="41.72833117723156" width="223.99999999999997"><g><svg viewBox="0 0 223.99999999999997 41.72833117723156" height="41.72833117723156" width="223.99999999999997"><g><svg viewBox="0 0 223.99999999999997 41.72833117723156" height="41.72833117723156" width="223.99999999999997"><g transform="matrix(1,0,0,1,0,0)"><svg width="223.99999999999997" viewBox="3.700000047683716 -35.5 193.24000549316406 36" height="41.72833117723156" data-palette-color="#454545"><path d="M10.05 0L4.9 0Q4.4 0 4.05-0.35 3.7-0.7 3.7-1.25L3.7-1.25 3.7-33.75Q3.7-34.3 4.05-34.65 4.4-35 4.9-35L4.9-35 9.5-35Q10.25-35 10.6-34.65 10.95-34.3 11.05-34.1L11.05-34.1 24.35-13.3 24.35-33.75Q24.35-34.3 24.7-34.65 25.05-35 25.6-35L25.6-35 30.7-35Q31.25-35 31.6-34.65 31.95-34.3 31.95-33.75L31.95-33.75 31.95-1.25Q31.95-0.75 31.6-0.38 31.25 0 30.7 0L30.7 0 26.1 0Q25.35 0 25-0.38 24.65-0.75 24.55-0.9L24.55-0.9 11.3-21.05 11.3-1.25Q11.3-0.7 10.95-0.35 10.6 0 10.05 0L10.05 0ZM46.45 0.5L46.45 0.5Q43.8 0.5 41.7-0.53 39.6-1.55 38.35-3.3 37.1-5.05 37.1-7.2L37.1-7.2Q37.1-10.75 39.97-12.8 42.85-14.85 47.55-15.6L47.55-15.6 54.1-16.55 54.1-17.45Q54.1-19.4 53.2-20.45 52.3-21.5 50.05-21.5L50.05-21.5Q48.4-21.5 47.42-20.85 46.45-20.2 45.9-19.15L45.9-19.15Q45.5-18.5 44.7-18.5L44.7-18.5 39.95-18.5Q39.4-18.5 39.1-18.82 38.8-19.15 38.85-19.6L38.85-19.6Q38.85-20.45 39.5-21.6 40.15-22.75 41.5-23.88 42.85-25 44.97-25.75 47.1-26.5 50.1-26.5L50.1-26.5Q53.25-26.5 55.5-25.75 57.75-25 59.12-23.65 60.5-22.3 61.12-20.53 61.75-18.75 61.75-16.7L61.75-16.7 61.75-1.25Q61.75-0.7 61.4-0.35 61.05 0 60.55 0L60.55 0 55.6 0Q55.1 0 54.75-0.35 54.4-0.7 54.4-1.25L54.4-1.25 54.4-3.1Q53.75-2.15 52.65-1.33 51.55-0.5 50.02 0 48.5 0.5 46.45 0.5ZM48.45-4.7L48.45-4.7Q50.1-4.7 51.4-5.4 52.7-6.1 53.45-7.55 54.2-9 54.2-11.2L54.2-11.2 54.2-12.05 49.55-11.3Q46.9-10.85 45.65-9.95 44.4-9.05 44.4-7.75L44.4-7.75Q44.4-6.8 44.97-6.13 45.55-5.45 46.47-5.08 47.4-4.7 48.45-4.7ZM77.45 0.5L77.45 0.5Q74.95 0.5 73-0.33 71.05-1.15 69.7-2.73 68.35-4.3 67.65-6.48 66.95-8.65 66.8-11.3L66.8-11.3Q66.75-12.25 66.75-13.03 66.75-13.8 66.8-14.7L66.8-14.7Q66.9-17.3 67.62-19.45 68.35-21.6 69.67-23.18 71-24.75 72.97-25.63 74.95-26.5 77.45-26.5L77.45-26.5Q80.05-26.5 81.9-25.63 83.75-24.75 84.95-23.4L84.95-23.4 84.95-34.25Q84.95-34.8 85.3-35.15 85.65-35.5 86.2-35.5L86.2-35.5 91.35-35.5Q91.9-35.5 92.25-35.15 92.6-34.8 92.6-34.25L92.6-34.25 92.6-1.25Q92.6-0.7 92.25-0.35 91.9 0 91.35 0L91.35 0 86.55 0Q86.05 0 85.7-0.35 85.35-0.7 85.35-1.25L85.35-1.25 85.35-2.95Q84.1-1.45 82.2-0.48 80.3 0.5 77.45 0.5ZM79.75-5.5L79.75-5.5Q81.6-5.5 82.72-6.35 83.85-7.2 84.37-8.5 84.9-9.8 84.95-11.3L84.95-11.3Q85.05-12.25 85.05-13.2 85.05-14.15 84.95-15.05L84.95-15.05Q84.9-16.45 84.32-17.68 83.75-18.9 82.65-19.7 81.55-20.5 79.75-20.5L79.75-20.5Q77.85-20.5 76.75-19.68 75.65-18.85 75.17-17.5 74.7-16.15 74.6-14.55L74.6-14.55Q74.5-13 74.6-11.45L74.6-11.45Q74.7-9.85 75.17-8.5 75.65-7.15 76.75-6.33 77.85-5.5 79.75-5.5ZM110.49 0.5L110.49 0.5Q104.74 0.5 101.37-2.7 97.99-5.9 97.79-12L97.79-12Q97.79-12.4 97.79-13.08 97.79-13.75 97.79-14.1L97.79-14.1Q97.99-18 99.54-20.78 101.09-23.55 103.89-25.03 106.69-26.5 110.44-26.5L110.44-26.5Q114.69-26.5 117.49-24.78 120.29-23.05 121.72-20.08 123.14-17.1 123.14-13.25L123.14-13.25 123.14-12.1Q123.14-11.6 122.79-11.23 122.44-10.85 121.89-10.85L121.89-10.85 105.59-10.85Q105.59-10.85 105.59-10.73 105.59-10.6 105.59-10.5L105.59-10.5Q105.64-8.9 106.19-7.58 106.74-6.25 107.82-5.45 108.89-4.65 110.44-4.65L110.44-4.65Q111.64-4.65 112.44-5.03 113.24-5.4 113.77-5.88 114.29-6.35 114.54-6.7L114.54-6.7Q114.99-7.25 115.27-7.38 115.54-7.5 116.09-7.5L116.09-7.5 121.39-7.5Q121.84-7.5 122.17-7.2 122.49-6.9 122.44-6.45L122.44-6.45Q122.39-5.6 121.62-4.42 120.84-3.25 119.34-2.13 117.84-1 115.62-0.25 113.39 0.5 110.49 0.5ZM105.59-15.6L105.59-15.45 115.34-15.45 115.34-15.6Q115.34-17.35 114.77-18.68 114.19-20 113.09-20.75 111.99-21.5 110.44-21.5L110.44-21.5Q108.89-21.5 107.82-20.75 106.74-20 106.17-18.68 105.59-17.35 105.59-15.6L105.59-15.6ZM139.79 0.5L139.79 0.5Q134.04 0.5 130.67-2.7 127.29-5.9 127.09-12L127.09-12Q127.09-12.4 127.09-13.08 127.09-13.75 127.09-14.1L127.09-14.1Q127.29-18 128.84-20.78 130.39-23.55 133.19-25.03 135.99-26.5 139.74-26.5L139.74-26.5Q143.99-26.5 146.79-24.78 149.59-23.05 151.02-20.08 152.44-17.1 152.44-13.25L152.44-13.25 152.44-12.1Q152.44-11.6 152.09-11.23 151.74-10.85 151.19-10.85L151.19-10.85 134.89-10.85Q134.89-10.85 134.89-10.73 134.89-10.6 134.89-10.5L134.89-10.5Q134.94-8.9 135.49-7.58 136.04-6.25 137.12-5.45 138.19-4.65 139.74-4.65L139.74-4.65Q140.94-4.65 141.74-5.03 142.54-5.4 143.06-5.88 143.59-6.35 143.84-6.7L143.84-6.7Q144.29-7.25 144.56-7.38 144.84-7.5 145.39-7.5L145.39-7.5 150.69-7.5Q151.14-7.5 151.47-7.2 151.79-6.9 151.74-6.45L151.74-6.45Q151.69-5.6 150.92-4.42 150.14-3.25 148.64-2.13 147.14-1 144.92-0.25 142.69 0.5 139.79 0.5ZM134.89-15.6L134.89-15.45 144.64-15.45 144.64-15.6Q144.64-17.35 144.06-18.68 143.49-20 142.39-20.75 141.29-21.5 139.74-21.5L139.74-21.5Q138.19-21.5 137.12-20.75 136.04-20 135.47-18.68 134.89-17.35 134.89-15.6L134.89-15.6ZM163.74 0L158.69 0Q158.19 0 157.81-0.35 157.44-0.7 157.44-1.25L157.44-1.25 157.44-24.75Q157.44-25.3 157.81-25.65 158.19-26 158.69-26L158.69-26 163.34-26Q163.89-26 164.24-25.65 164.59-25.3 164.59-24.75L164.59-24.75 164.59-23.05Q165.64-24.45 167.41-25.45 169.19-26.45 171.64-26.5L171.64-26.5Q177.39-26.6 179.59-22.1L179.59-22.1Q180.74-24.05 182.89-25.28 185.04-26.5 187.64-26.5L187.64-26.5Q190.24-26.5 192.34-25.33 194.44-24.15 195.69-21.73 196.94-19.3 196.94-15.5L196.94-15.5 196.94-1.25Q196.94-0.7 196.56-0.35 196.19 0 195.69 0L195.69 0 190.74 0Q190.19 0 189.84-0.35 189.49-0.7 189.49-1.25L189.49-1.25 189.49-15.1Q189.49-17.15 188.91-18.3 188.34-19.45 187.36-19.98 186.39-20.5 185.19-20.5L185.19-20.5Q184.14-20.5 183.16-19.98 182.19-19.45 181.56-18.3 180.94-17.15 180.94-15.1L180.94-15.1 180.94-1.25Q180.94-0.7 180.59-0.35 180.24 0 179.74 0L179.74 0 174.79 0Q174.24 0 173.89-0.35 173.54-0.7 173.54-1.25L173.54-1.25 173.54-15.1Q173.54-17.15 172.94-18.3 172.34-19.45 171.36-19.98 170.39-20.5 169.24-20.5L169.24-20.5Q168.19-20.5 167.21-19.98 166.24-19.45 165.61-18.3 164.99-17.15 164.99-15.15L164.99-15.15 164.99-1.25Q164.99-0.7 164.64-0.35 164.29 0 163.74 0L163.74 0Z" opacity="1" transform="matrix(1,0,0,1,0,0)" fill="#454545" class="undefined-text-0" data-fill-palette-color="primary" id="text-0"></path></svg></g></svg></g></svg></g></svg></g><g></g></svg></g></svg></g></svg></g></svg></g><defs></defs></svg><rect width="320" height="360" fill="none" stroke="none" visibility="hidden"></rect></g></svg></g></svg>